# Blender v3.5.1 OBJ File: 'assets.blend'
# www.blender.org
mtllib notfallschild.mtl
o notfallschild_notfallschild_Cube.004
v -0.007490 -0.110456 0.222484
v -0.007707 0.106853 0.224229
v -0.022143 0.106838 0.224317
v -0.021926 -0.110471 0.222572
v -0.024871 0.110420 -0.222285
v -0.024654 -0.106888 -0.224029
v -0.010219 -0.106873 -0.224118
v -0.010435 0.110436 -0.222373
v 0.031107 -0.106830 -0.224369
v 0.030890 0.110479 -0.222625
v 0.033618 0.106896 0.223976
v 0.033835 -0.110412 0.222232
vt 0.375000 0.435279
vt 0.625000 0.435279
vt 0.625000 0.500000
vt 0.375000 0.500000
vt 0.625000 0.750000
vt 0.375000 0.750000
vt 0.310279 0.500000
vt 0.310279 0.750000
vt 0.689721 0.500000
vt 0.689721 0.750000
vt 0.625000 0.814721
vt 0.375000 0.814721
vt 0.375000 0.000000
vt 0.625000 0.000000
vt 0.625000 0.250000
vt 0.375000 0.250000
vt 0.625000 1.000000
vt 0.375000 1.000000
vt 0.875000 0.500000
vt 0.875000 0.750000
vt 0.125000 0.500000
vt 0.125000 0.750000
vn 0.0061 -0.0080 0.9999
vn -1.0000 -0.0010 0.0061
vn 0.0010 -1.0000 -0.0080
vn -0.0010 1.0000 0.0080
vn -0.0061 0.0080 -0.9999
vn 1.0000 0.0010 -0.0061
usemtl schild
s 1
f 1/1/1 2/2/1 3/3/1 4/4/1
f 4/4/2 3/3/2 5/5/2 6/6/2
f 1/7/3 4/4/3 6/6/3 7/8/3
f 3/3/4 2/9/4 8/10/4 5/5/4
f 6/6/5 5/5/5 8/11/5 7/12/5
usemtl metal
f 9/13/6 10/14/6 11/15/6 12/16/6
f 7/12/5 8/11/5 10/17/5 9/18/5
f 2/9/4 11/19/4 10/20/4 8/10/4
f 12/21/3 1/7/3 7/8/3 9/22/3
f 12/16/1 11/15/1 2/2/1 1/1/1
