# Blender v3.5.1 OBJ File: 'assets.blend'
# www.blender.org
mtllib trennwand.mtl
o Cube_Cube.005
v -1.567073 3.499640 -1.138401
v -1.567073 -0.889328 -1.138401
v -1.567073 -0.889328 1.138401
v -1.567073 3.499640 1.138401
v -1.612130 -1.000000 1.195525
v -1.612130 -0.946452 1.249073
v -1.614807 -0.946452 1.195525
v -1.612130 -0.982034 1.231108
v -1.613531 -0.974468 1.223541
v -1.613909 -0.946452 1.231108
v -1.613909 -0.982034 1.195525
v -1.612130 3.685454 1.249073
v -1.612130 3.739002 1.195525
v -1.614807 3.685454 1.195525
v -1.612130 3.721037 1.231108
v -1.613531 3.713470 1.223541
v -1.613909 3.721037 1.195525
v -1.613909 3.685454 1.231108
v -1.612130 -1.000000 -1.195525
v -1.614807 -0.946452 -1.195525
v -1.612130 -0.946452 -1.249073
v -1.613909 -0.982034 -1.195525
v -1.613531 -0.974468 -1.223541
v -1.613909 -0.946452 -1.231108
v -1.612130 -0.982034 -1.231108
v -1.612130 3.739002 -1.195525
v -1.612130 3.685454 -1.249073
v -1.614807 3.685454 -1.195525
v -1.612130 3.721037 -1.231108
v -1.613531 3.713470 -1.223541
v -1.613909 3.685454 -1.231108
v -1.613909 3.721037 -1.195525
v -1.517477 3.739002 -1.195525
v -1.514799 3.661870 -1.213410
v -1.517477 3.685454 -1.249073
v -1.515708 3.713335 -1.203385
v -1.516057 3.708008 -1.227913
v -1.515690 3.672094 -1.236975
v -1.517477 3.721037 -1.231108
v -1.517477 -1.000000 -1.195525
v -1.517477 -0.946452 -1.249073
v -1.514799 -0.963012 -1.212086
v -1.517477 -0.982034 -1.231108
v -1.516057 -0.978943 -1.228016
v -1.515691 -0.955746 -1.236529
v -1.515691 -0.987456 -1.204819
v -1.514799 -0.963012 1.212086
v -1.517477 -0.946452 1.249073
v -1.517477 -1.000000 1.195525
v -1.515691 -0.955746 1.236529
v -1.516057 -0.978943 1.228016
v -1.517477 -0.982034 1.231108
v -1.515691 -0.987456 1.204819
v -1.517477 3.739002 1.195525
v -1.517477 3.685454 1.249073
v -1.514799 3.661870 1.213410
v -1.517477 3.721037 1.231108
v -1.516057 3.708008 1.227913
v -1.515690 3.672094 1.236975
v -1.515708 3.713336 1.203385
v -1.515678 -0.889328 1.138401
v -1.514799 -0.901458 1.150531
v -1.514799 3.524935 1.150097
v -1.515678 3.499640 1.138401
v -1.515678 -0.889328 -1.138401
v -1.514799 -0.901458 -1.150531
v -1.514799 3.524935 -1.150097
v -1.515678 3.499640 -1.138401
vt 0.986413 0.004282
vt 0.986413 0.609248
vt 0.973901 0.609248
vt 0.973901 0.004282
vt 1.000000 0.000000
vt 1.000000 0.573236
vt 0.993206 0.573236
vt 0.993206 0.000000
vt 0.660432 0.584756
vt 0.672943 0.584756
vt 0.672943 0.900815
vt 0.660432 0.900815
vt 0.323138 0.007078
vt 0.323138 0.619343
vt 0.007078 0.619343
vt 0.007078 0.007078
vt 0.973901 0.004282
vt 0.973901 0.609248
vt 0.961389 0.609248
vt 0.961389 0.004282
vt 0.692249 0.580052
vt 0.692249 0.881010
vt 0.685455 0.881010
vt 0.685455 0.580052
vt 0.986413 0.573236
vt 0.986413 0.000000
vt 0.993206 0.000000
vt 0.993206 0.573236
vt 0.343299 0.598028
vt 0.647348 0.598028
vt 0.655717 0.616126
vt 0.334930 0.616126
vt 0.961389 0.000000
vt 0.961389 0.580052
vt 0.660432 0.580052
vt 0.660432 0.000000
vt 0.647406 0.013030
vt 0.655542 0.004895
vt 0.343242 0.013030
vt 0.335105 0.004895
vt 0.323138 0.000000
vt 0.327841 0.002375
vt 0.326841 0.003375
vt 0.323138 0.002375
vt 0.330216 0.007078
vt 0.327841 0.007078
vt 0.330216 0.619343
vt 0.327841 0.624047
vt 0.326841 0.623047
vt 0.327841 0.619343
vt 0.323138 0.626422
vt 0.323138 0.624047
vt 0.007078 0.000000
vt 0.007078 0.002375
vt 0.003375 0.003375
vt 0.002375 0.002375
vt 0.002375 0.007078
vt 0.000000 0.007078
vt 0.007078 0.626422
vt 0.002375 0.624047
vt 0.003375 0.623047
vt 0.007078 0.624047
vt 0.000000 0.619343
vt 0.002375 0.619343
vt 0.653353 0.626313
vt 0.654392 0.622925
vt 0.657634 0.622220
vt 0.658057 0.623939
vt 0.658832 0.617475
vt 0.660432 0.619236
vt 0.653353 0.000000
vt 0.658057 0.002374
vt 0.657648 0.002786
vt 0.654582 0.001662
vt 0.660432 0.007077
vt 0.658774 0.005853
vt 0.331874 0.005853
vt 0.332999 0.002786
vt 0.336066 0.001662
vt 0.330216 0.007077
vt 0.332591 0.002374
vt 0.337294 0.000000
vt 0.337294 0.626313
vt 0.332591 0.623939
vt 0.333013 0.622220
vt 0.336255 0.622925
vt 0.330216 0.619236
vt 0.331815 0.617475
vt 0.672943 0.900815
vt 0.685455 0.900815
vt 0.685455 0.905518
vt 0.672943 0.905518
vt 0.961389 0.000000
vt 0.973901 0.000000
vt 0.660432 0.580052
vt 0.672943 0.580052
vt 0.973901 0.614261
vt 0.961389 0.614261
vt 0.685455 0.584756
vt 0.672943 0.584756
vt 0.672943 0.580052
vt 0.685455 0.580052
vt 0.973901 0.000000
vt 0.986413 0.000000
vt 0.672943 0.905518
vt 0.660432 0.905518
vt 0.986413 0.614261
vt 0.973901 0.614261
vt 0.645802 0.594683
vt 0.645803 0.014631
vt 0.344845 0.014631
vt 0.344845 0.594683
vt 0.692249 0.881010
vt 0.692249 0.580052
vt 0.699042 0.580052
vt 0.699042 0.881010
vn 0.0000 0.0000 1.0000
vn 0.0000 1.0000 0.0000
vn -1.0000 0.0000 0.0000
vn 0.0000 0.0000 -1.0000
vn 0.0000 -1.0000 0.0000
vn 1.0000 -0.0000 0.0000
vn -0.9928 -0.1089 0.0496
vn -0.9928 -0.0496 0.1090
vn -0.9995 -0.0228 0.0228
vn -0.9928 0.0496 0.1089
vn -0.9928 0.1089 0.0496
vn -0.9995 0.0228 0.0228
vn -0.9928 -0.1089 -0.0496
vn -0.9995 -0.0228 -0.0228
vn -0.9928 -0.0496 -0.1089
vn -0.9928 0.1089 -0.0496
vn -0.9928 0.0496 -0.1090
vn -0.9995 0.0228 -0.0228
vn 0.9954 0.0868 -0.0394
vn 0.9995 0.0198 -0.0238
vn 0.9914 0.0506 -0.1205
vn 0.9630 -0.2434 -0.1156
vn 0.9630 -0.1156 -0.2434
vn 0.9984 -0.0394 -0.0394
vn 0.9984 -0.0394 0.0394
vn 0.9630 -0.1156 0.2434
vn 0.9630 -0.2434 0.1156
vn 0.9954 0.0868 0.0394
vn 0.9914 0.0506 0.1205
vn 0.9995 0.0198 0.0238
vn -0.9951 -0.0986 0.0000
vn -0.9997 -0.0252 0.0000
vn -0.9951 0.0000 0.0986
vn -0.9997 0.0000 0.0252
vn -0.9951 0.0986 0.0000
vn -0.9997 0.0252 0.0000
vn -0.9951 0.0000 -0.0986
vn -0.9997 0.0000 -0.0252
vn 0.0000 -0.8927 -0.4507
vn 0.0000 -0.4507 -0.8927
vn 0.0000 0.8927 -0.4507
vn 0.0000 0.4507 -0.8927
vn 0.9993 -0.0000 -0.0371
vn 0.9896 -0.0000 -0.1435
vn 0.9900 -0.1410 0.0000
vn 0.9993 -0.0364 0.0000
vn 0.9976 0.0688 -0.0000
vn 0.9998 0.0176 -0.0000
vn 0.9896 -0.0000 0.1435
vn 0.9993 -0.0000 0.0371
vn 0.0000 -0.8927 0.4507
vn 0.0000 -0.4507 0.8927
vn 0.0000 0.8927 0.4507
vn 0.0000 0.4507 0.8927
vn 0.9973 -0.0000 0.0735
vn 0.9974 0.0722 0.0000
vn 0.9994 -0.0347 0.0000
vn 0.9973 -0.0000 -0.0735
usemtl None
s off
f 48/1/1 55/2/1 12/3/1 6/4/1
f 65/5/1 68/6/1 1/7/1 2/8/1
f 33/9/2 26/10/2 13/11/2 54/12/2
f 7/13/3 14/14/3 28/15/3 20/16/3
f 21/17/4 27/18/4 35/19/4 41/20/4
f 68/21/5 64/22/5 4/23/5 1/24/5
f 64/25/4 61/26/4 3/27/4 4/28/4
f 63/29/6 67/30/6 34/31/6 56/32/6
f 2/33/6 1/34/6 4/35/6 3/36/6
f 67/30/6 66/37/6 42/38/6 34/31/6
f 66/37/6 62/39/6 47/40/6 42/38/6
f 62/39/6 63/29/6 56/32/6 47/40/6
f 5/41/7 8/42/7 9/43/7 11/44/7
f 6/45/8 10/46/8 9/43/8 8/42/8
f 7/13/9 11/44/9 9/43/9 10/46/9
f 12/47/10 15/48/10 16/49/10 18/50/10
f 13/51/11 17/52/11 16/49/11 15/48/11
f 14/14/12 18/50/12 16/49/12 17/52/12
f 19/53/13 22/54/13 23/55/13 25/56/13
f 20/16/14 24/57/14 23/55/14 22/54/14
f 21/58/15 25/56/15 23/55/15 24/57/15
f 26/59/16 29/60/16 30/61/16 32/62/16
f 27/63/17 31/64/17 30/61/17 29/60/17
f 28/15/18 32/62/18 30/61/18 31/64/18
f 33/65/19 36/66/19 37/67/19 39/68/19
f 34/31/20 38/69/20 37/67/20 36/66/20
f 35/70/21 39/68/21 37/67/21 38/69/21
f 40/71/22 43/72/22 44/73/22 46/74/22
f 41/75/23 45/76/23 44/73/23 43/72/23
f 42/38/24 46/74/24 44/73/24 45/76/24
f 47/40/25 50/77/25 51/78/25 53/79/25
f 48/80/26 52/81/26 51/78/26 50/77/26
f 49/82/27 53/79/27 51/78/27 52/81/27
f 54/83/28 57/84/28 58/85/28 60/86/28
f 55/87/29 59/88/29 58/85/29 57/84/29
f 56/32/30 60/86/30 58/85/30 59/88/30
f 19/53/31 5/41/31 11/44/31 22/54/31
f 22/54/32 11/44/32 7/13/32 20/16/32
f 6/45/33 12/47/33 18/50/33 10/46/33
f 10/46/34 18/50/34 14/14/34 7/13/34
f 13/51/35 26/59/35 32/62/35 17/52/35
f 17/52/36 32/62/36 28/15/36 14/14/36
f 27/63/37 21/58/37 24/57/37 31/64/37
f 31/64/38 24/57/38 20/16/38 28/15/38
f 40/89/39 19/90/39 25/91/39 43/92/39
f 43/93/40 25/94/40 21/17/40 41/20/40
f 26/10/41 33/9/41 39/95/41 29/96/41
f 29/97/42 39/98/42 35/19/42 27/18/42
f 34/31/43 42/38/43 45/76/43 38/69/43
f 38/69/44 45/76/44 41/75/44 35/70/44
f 49/82/45 40/71/45 46/74/45 53/79/45
f 53/79/46 46/74/46 42/38/46 47/40/46
f 33/65/47 54/83/47 60/86/47 36/66/47
f 36/66/48 60/86/48 56/32/48 34/31/48
f 55/87/49 48/80/49 50/77/49 59/88/49
f 59/88/50 50/77/50 47/40/50 56/32/50
f 5/99/51 49/100/51 52/101/51 8/102/51
f 8/103/52 52/104/52 48/1/52 6/4/52
f 54/12/53 13/11/53 15/105/53 57/106/53
f 57/107/54 15/108/54 12/3/54 55/2/54
f 19/90/5 40/89/5 49/100/5 5/99/5
f 68/109/55 65/110/55 66/37/55 67/30/55
f 62/39/56 66/37/56 65/110/56 61/111/56
f 67/30/57 63/29/57 64/112/57 68/109/57
f 63/29/58 62/39/58 61/111/58 64/112/58
f 61/113/2 65/114/2 2/115/2 3/116/2
