# Blender v3.5.1 OBJ File: 'zentrifuge.blend'
# www.blender.org
mtllib lampe.mtl
o Cube.006_Cube.014
v 55.044559 38.761990 40.749920
v 55.044559 40.675770 40.763412
v 55.044559 38.761990 43.411583
v 32.544868 38.812378 43.350372
v 32.544868 38.812378 40.811131
v 32.544868 40.619431 40.841328
v 32.544868 40.619431 43.320179
v 51.830318 38.721283 40.700474
v 55.044559 40.290649 40.890461
v 55.044559 40.290649 43.271046
v 32.544868 40.297165 43.213867
v 32.544868 40.297169 40.947636
v 35.759109 40.285385 43.317234
v 51.779678 40.621941 42.080753
v 51.779678 38.723770 42.080753
v 51.779678 40.235443 43.177105
v 51.779682 40.235443 40.984406
v 51.830318 40.285385 43.317234
v 51.830318 40.285385 40.844269
v 51.779678 40.621941 43.304604
v 51.779682 38.848602 43.304604
v 51.779678 38.848602 40.856903
v 55.044559 38.626244 42.080753
v 55.044559 40.675770 42.080753
v 32.544868 38.682877 42.080753
v 32.544868 40.619431 42.080753
v 35.649246 40.721283 42.080753
v 35.822155 40.621941 42.080753
v 35.822155 38.723770 42.080753
v 35.822155 40.235443 43.177105
v 35.822155 40.235443 40.984406
v 51.940182 40.776039 42.080753
v 35.822155 38.848602 43.304604
v 35.822155 40.621941 40.856903
v 35.822155 38.848602 40.856903
v 35.759109 38.580494 42.080753
v 32.544868 40.285385 42.080753
v 55.044559 40.285385 42.080753
v 32.802010 38.721283 40.700474
v 32.911873 40.721283 40.810333
v 32.802010 38.721283 43.461033
v 32.802010 40.721283 42.080753
v 54.808796 38.721283 43.461033
v 54.698933 40.776039 43.351170
v 54.808796 40.285385 43.317234
v 54.808796 38.580494 42.080753
v 54.698933 40.776039 42.080753
v 32.544868 40.285385 43.317234
v 32.544868 40.721283 43.461033
v 32.544868 38.580494 42.080753
v 32.544868 38.721283 43.461033
v 32.544868 40.285385 40.844269
v 32.544868 38.721283 40.700474
v 32.544868 40.721283 42.080753
v 32.544868 40.721283 40.700474
v 55.044559 40.285385 40.844269
v 55.044559 38.580494 42.080753
v 55.044559 38.721283 40.700474
v 55.044559 40.721283 42.080753
v 55.044559 40.721283 43.461033
v 55.044559 40.285385 43.317234
v 55.044559 38.721283 43.461033
v 51.830318 38.848602 40.856903
v 48.616077 38.848602 40.856903
v 45.401836 38.848602 40.856903
v 42.187592 38.848602 40.856903
v 38.973351 38.848602 40.856903
v 35.759109 38.848602 40.856903
v 51.830318 40.621941 40.856903
v 35.759109 38.848602 43.304604
v 38.973354 38.848602 43.304604
v 42.187595 38.848602 43.304604
v 45.401836 38.848602 43.304604
v 48.616077 38.848602 43.304604
v 51.830318 38.848602 43.304604
v 51.830318 40.621941 43.304604
v 45.401836 40.621941 43.304604
v 42.187592 40.621941 43.304604
v 35.759109 40.621941 43.304604
v 35.759109 40.235443 43.177105
v 38.973351 40.235443 43.177105
v 42.187595 40.235443 43.177105
v 45.401836 40.235443 43.177105
v 48.616077 40.235443 43.177105
v 51.830318 40.235443 43.177105
v 51.830318 40.235443 40.984406
v 48.616077 40.235443 40.984406
v 45.401836 40.235443 40.984406
v 42.187595 40.235443 40.984406
v 38.973354 40.235443 40.984406
v 35.759109 40.235443 40.984406
v 35.759109 40.621941 42.080753
v 38.973351 40.621941 42.080753
v 42.187595 40.621941 42.080753
v 45.401836 40.621941 42.080753
v 48.616077 40.621941 42.080753
v 51.830318 40.621941 42.080753
v 51.830318 38.723770 42.080753
v 48.616077 38.723770 42.080753
v 45.401836 38.723770 42.080753
v 42.187595 38.723770 42.080753
v 38.973351 38.723770 42.080753
v 35.759109 38.723770 42.080753
v 51.830318 40.300068 40.914337
v 51.830318 40.300068 43.247169
v 51.799671 38.774704 43.382820
v 51.830318 40.750488 42.080753
v 51.830318 40.750488 43.382820
v 51.799671 38.629227 42.080753
v 51.799671 38.774704 40.778687
v 35.759109 38.753586 40.856903
v 35.759109 40.272717 40.984406
v 35.759109 40.696079 42.080753
v 35.759109 40.696079 40.856903
v 35.759109 38.616848 42.080753
v 35.759109 38.753586 43.304604
v 35.759109 40.272717 43.177105
v 55.044559 40.721283 40.700474
v 51.779682 40.621941 40.856903
v 35.759109 40.721283 43.461033
v 35.759109 40.721283 40.700474
v 35.822155 40.621941 43.304604
v 32.802010 40.721283 40.700474
v 55.044559 40.675770 43.398090
v 38.973351 40.621941 43.304604
v 48.616077 40.621941 43.304604
v 48.616077 40.621941 40.856903
v 45.401836 40.621941 40.856903
v 42.187595 40.621941 40.856903
v 38.973354 40.621941 40.856903
v 35.759109 40.621941 40.856903
v 51.830318 40.750488 40.778687
v 35.759109 40.696079 43.304604
v 54.808796 40.776039 43.461033
v 51.830318 40.776039 43.461033
v 35.759109 40.721283 42.080753
v 51.830318 40.776039 42.080753
v 51.830318 40.776039 40.700474
v 32.911873 40.721283 42.080753
v 54.808796 40.776039 42.080753
v 32.988880 41.036568 42.080753
v 35.649246 41.036568 42.080753
v 51.940182 41.091324 42.080753
v 54.698933 41.091324 42.080753
v 32.988880 41.036568 40.887344
v 35.572239 41.036568 40.887344
v 52.017189 41.091324 43.274162
v 35.572239 41.036568 43.274162
v 52.017189 41.091324 40.887344
v 51.940182 40.809822 42.080753
v 51.940182 40.809822 40.810333
v 54.698933 40.809822 42.080753
v 51.940182 41.058842 42.080753
v 54.698933 41.058842 42.080753
v 51.940182 41.058846 40.810337
v 54.698933 41.058846 40.810337
v 32.911873 40.995083 40.810337
v 32.911873 40.995083 42.080753
v 35.649246 40.995083 42.080753
v 32.911873 40.995083 43.351170
v 35.649246 40.995083 40.810337
v 35.649246 40.753494 43.351170
v 32.911873 40.753494 43.351170
v 32.911873 40.753494 42.080753
v 35.649246 40.753494 42.080753
v 32.911873 41.036568 40.810337
v 51.940182 41.091324 43.351170
v 35.572239 41.036568 42.080753
v 51.940182 41.091324 40.810337
v 32.911873 41.036568 43.351170
v 32.911873 41.036568 42.080753
v 54.698933 41.091324 40.810337
v 54.621925 41.091324 42.080753
v 32.582500 38.721283 40.700474
v 32.582500 40.285385 43.317234
v 32.582500 38.580494 42.080753
v 32.582500 40.721283 40.700474
v 32.582500 38.721283 43.461033
v 32.582500 40.285385 40.844269
v 32.582500 40.721283 42.080753
v 32.582500 40.721283 43.461033
v 54.926678 40.748661 40.700474
v 54.926678 38.721283 43.461033
v 54.926678 40.285385 40.844269
v 54.926678 40.748661 42.080753
v 54.926678 38.721283 40.700474
v 54.926678 40.748661 43.461033
v 54.926678 40.285385 43.317234
v 54.926678 38.580494 42.080753
v 54.926678 40.721283 40.700474
v 54.926678 40.721283 43.461033
v 35.759109 38.721283 43.461033
v 35.759109 40.285385 40.844269
v 35.759109 38.721283 40.700474
v 35.649246 40.721283 40.810333
v 35.649246 40.721283 43.351170
v 35.649246 41.036568 40.810337
v 35.649246 41.036568 43.351170
v 35.649246 40.995083 43.351170
v 35.649246 40.753494 40.810333
v 32.802010 40.721283 43.461033
v 32.802010 40.285385 43.317234
v 32.802010 38.580494 42.080753
v 32.911873 40.721283 43.351170
v 32.988880 41.036568 43.274162
v 32.802010 40.285385 40.844269
v 32.911873 40.753494 40.810333
v 54.808796 38.721283 40.700474
v 54.808796 40.776039 40.700474
v 54.808796 40.285385 40.844269
v 54.808796 40.721283 43.461033
v 54.808796 40.721283 40.700474
v 54.698933 40.776039 40.810333
v 54.698933 41.091324 43.351170
v 54.698933 40.809822 43.351170
v 54.698933 40.809822 40.810333
v 54.698933 41.058842 43.351170
v 54.621925 41.091324 43.274162
v 54.621925 41.091324 40.887344
v 51.830318 38.580494 42.080753
v 51.830318 40.721283 40.700474
v 51.940182 40.776039 43.351170
v 51.940182 40.809822 43.351170
v 51.940182 41.058842 43.351170
v 51.830318 38.721283 43.461033
v 51.830318 40.721283 43.461033
v 51.940182 40.776039 40.810333
v 52.017189 41.091324 42.080753
vt 0.636239 0.357198
vt 0.636239 0.355273
vt 0.707225 0.355275
vt 0.707224 0.357200
vt 0.390780 0.006192
vt 0.390780 0.000001
vt 0.461400 0.000001
vt 0.461400 0.006193
vt 0.787583 0.357202
vt 0.787583 0.355277
vt 0.696472 0.186755
vt 0.696471 0.271643
vt 0.628382 0.264697
vt 0.635573 0.186485
vt 0.467431 0.026286
vt 0.467431 0.106649
vt 0.461400 0.106649
vt 0.461400 0.026286
vt 0.696047 0.713350
vt 0.696047 0.795340
vt 0.631088 0.788714
vt 0.638072 0.712747
vt 0.294442 0.176159
vt 0.223384 0.176069
vt 0.225460 0.014524
vt 0.291692 0.021245
vt 0.029711 0.015950
vt 0.098088 0.010521
vt 0.098235 0.013078
vt 0.029564 0.018465
vt 0.390779 0.337109
vt 0.390779 0.175248
vt 0.453396 0.175248
vt 0.453396 0.337109
vt 0.161638 0.008111
vt 0.161609 0.010746
vt 0.009504 0.011858
vt 0.008977 0.014615
vt 0.314974 0.175963
vt 0.311857 0.017838
vt 0.225669 0.011957
vt 0.328163 0.337109
vt 0.328163 0.175248
vt 0.287503 0.838817
vt 0.222624 0.835104
vt 0.222637 0.832051
vt 0.287643 0.835544
vt 0.026643 0.669566
vt 0.097397 0.669819
vt 0.097799 0.832240
vt 0.032533 0.835576
vt 0.390778 0.994917
vt 0.390778 0.991691
vt 0.453396 0.991692
vt 0.453396 0.994917
vt 0.160241 0.669913
vt 0.160279 0.834213
vt 0.005544 0.669807
vt 0.008266 0.835242
vt 0.312041 0.838941
vt 0.311911 0.835317
vt 0.223054 0.669778
vt 0.328162 0.994917
vt 0.328162 0.991691
vt 0.101792 0.006371
vt 0.026306 0.012735
vt 0.457398 0.166080
vt 0.453396 0.172657
vt 0.390779 0.172657
vt 0.390780 0.166080
vt 0.294978 0.015739
vt 0.291582 0.018788
vt 0.222182 0.007861
vt 0.328162 0.998710
vt 0.390778 0.998710
vt 0.696047 0.696259
vt 0.632633 0.696259
vt 0.467431 0.002802
vt 0.461400 0.002802
vt 0.696472 0.166782
vt 0.629074 0.166782
vt 0.811066 0.357202
vt 0.811066 0.355277
vt 0.763872 0.166781
vt 0.757372 0.186485
vt 0.759460 0.696259
vt 0.754021 0.712747
vt 0.098106 0.839846
vt 0.097804 0.835210
vt 0.160284 0.837427
vt 0.160288 0.842867
vt 0.028448 0.839627
vt 0.032677 0.838858
vt 0.113618 0.835837
vt 0.318312 0.012379
vt 0.311424 0.015288
vt 0.229588 0.007658
vt 0.161699 0.002967
vt 0.328163 0.172657
vt 0.324161 0.166080
vt 0.003832 0.840433
vt 0.008116 0.838995
vt 0.453396 0.998710
vt 0.222332 0.839731
vt 0.206864 0.835710
vt 0.291695 0.839585
vt 0.094288 0.006174
vt 0.771825 0.677120
vt 0.707200 0.677120
vt 0.707200 0.675009
vt 0.771825 0.675009
vt 0.761005 0.788714
vt 0.764562 0.264698
vt 0.320161 0.006192
vt 0.320161 0.000000
vt 0.565249 0.357196
vt 0.565249 0.355271
vt 0.767092 0.001925
vt 0.767092 0.013156
vt 0.696472 0.013156
vt 0.696472 0.001925
vt 0.461400 0.357195
vt 0.484885 0.357195
vt 0.484885 0.368427
vt 0.461400 0.368426
vt 0.625852 0.013156
vt 0.625852 0.001925
vt 0.565249 0.368427
vt 0.607898 0.677408
vt 0.543414 0.677409
vt 0.543414 0.675760
vt 0.607898 0.675760
vt 0.473463 0.106649
vt 0.473463 0.177636
vt 0.467431 0.177636
vt 0.467431 0.352468
vt 0.467431 0.328984
vt 0.473463 0.328984
vt 0.473462 0.352468
vt 0.473463 0.248622
vt 0.467432 0.248622
vt 0.642576 0.533653
vt 0.707201 0.533654
vt 0.707201 0.535764
vt 0.642576 0.535764
vt 0.696047 0.800578
vt 0.625426 0.793375
vt 0.759309 0.713350
vt 0.766667 0.793375
vt 0.696047 0.691048
vt 0.766667 0.691048
vt 0.632784 0.713350
vt 0.625426 0.691048
vt 0.696471 0.273983
vt 0.625852 0.266779
vt 0.696471 0.164453
vt 0.767092 0.164452
vt 0.759735 0.186755
vt 0.633210 0.186754
vt 0.767092 0.266781
vt 0.625854 0.164453
vt 0.294222 0.669623
vt 0.223301 0.504849
vt 0.294734 0.504744
vt 0.223243 0.340194
vt 0.294578 0.340059
vt 0.097391 0.175642
vt 0.025792 0.175698
vt 0.097189 0.340199
vt 0.025745 0.340183
vt 0.097253 0.504917
vt 0.025904 0.504928
vt 0.390779 0.830465
vt 0.453396 0.830465
vt 0.390779 0.666013
vt 0.453396 0.666013
vt 0.390779 0.501561
vt 0.453396 0.501561
vt 0.160461 0.175715
vt 0.160240 0.340211
vt 0.160279 0.504898
vt 0.005038 0.504969
vt 0.004889 0.340182
vt 0.005075 0.175479
vt 0.315391 0.340024
vt 0.315613 0.504744
vt 0.315382 0.669862
vt 0.328163 0.501561
vt 0.328163 0.666013
vt 0.328163 0.830465
vt 0.161732 0.000000
vt 0.090430 0.002809
vt 0.390780 0.164773
vt 0.320159 0.164772
vt 0.233549 0.004348
vt 0.317417 0.008250
vt 0.294542 0.012292
vt 0.003531 0.004498
vt 0.002513 0.008702
vt 0.000715 0.004837
vt 0.219737 0.003763
vt 0.461400 0.164772
vt 0.104420 0.002191
vt 0.026839 0.009197
vt 0.203927 0.844282
vt 0.292976 0.847374
vt 0.160290 0.844692
vt 0.230096 0.841832
vt 0.390779 1.000000
vt 0.461400 1.000000
vt 0.000000 0.849009
vt 0.027165 0.847427
vt 0.116554 0.844446
vt 0.090330 0.841968
vt 0.320159 1.000000
vt 0.316325 0.840377
vt 0.320159 0.848958
vt 0.320159 0.008647
vt 0.467431 0.353869
vt 0.473463 0.355270
vt 0.467431 0.001401
vt 0.696472 0.158831
vt 0.761471 0.158831
vt 0.767092 0.164452
vt 0.696472 0.164452
vt 0.325780 0.159151
vt 0.390780 0.159152
vt 0.631473 0.158831
vt 0.625852 0.164452
vt 0.455779 0.159151
vt 0.761471 0.018777
vt 0.696472 0.018777
vt 0.631473 0.018777
vt 0.390780 0.018005
vt 0.325782 0.018004
vt 0.320161 0.012383
vt 0.390780 0.012384
vt 0.455779 0.018006
vt 0.461400 0.012385
vt 0.478928 0.677409
vt 0.478928 0.675760
vt 0.478929 0.534080
vt 0.543414 0.534081
vt 0.543414 0.535730
vt 0.478929 0.535729
vt 0.771825 0.533654
vt 0.771825 0.535764
vt 0.642577 0.677120
vt 0.642577 0.675009
vt 0.607898 0.534081
vt 0.607898 0.535730
vt 0.543414 0.519726
vt 0.607898 0.519727
vt 0.607898 0.521441
vt 0.543414 0.521441
vt 0.478929 0.519726
vt 0.478929 0.521440
vt 0.543414 0.691763
vt 0.478928 0.691764
vt 0.478928 0.690049
vt 0.543414 0.690049
vt 0.607898 0.691763
vt 0.607898 0.690048
vt 0.707200 0.689409
vt 0.642576 0.689409
vt 0.707201 0.521364
vt 0.771825 0.521365
vt 0.642577 0.521364
vt 0.771825 0.689409
vt 0.771825 0.691048
vt 0.707200 0.691047
vt 0.642577 0.519726
vt 0.707201 0.519726
vt 0.771825 0.519726
vt 0.642576 0.691047
vt 0.707200 0.671092
vt 0.767907 0.671092
vt 0.482837 0.671851
vt 0.543414 0.671851
vt 0.646494 0.671092
vt 0.603989 0.671851
vt 0.767907 0.539681
vt 0.707201 0.539681
vt 0.646494 0.539681
vt 0.543414 0.539638
vt 0.482838 0.539638
vt 0.603989 0.539639
vt 0.484885 0.355270
vt 0.696472 0.000000
vt 0.625852 0.000000
vt 0.461400 0.355270
vt 0.767092 0.000000
vt 0.636238 0.368429
vt 0.811066 0.368432
vt 0.787582 0.368432
vt 0.707224 0.368430
vt 0.473463 0.000000
vt 0.473463 0.002802
vt 0.461400 0.352468
vt 0.461400 0.328984
vt 0.461400 0.248622
vt 0.461400 0.177636
vt 0.473463 0.026286
vt 0.788975 0.535754
vt 0.788975 0.675000
vt 0.786544 0.675007
vt 0.786544 0.535761
vt 0.774255 0.675007
vt 0.774255 0.535761
vt 0.484885 0.519726
vt 0.461400 0.519726
vt 0.565249 0.519725
vt 0.625426 0.675019
vt 0.625426 0.535774
vt 0.627857 0.535767
vt 0.627857 0.675012
vt 0.640146 0.535767
vt 0.640146 0.675012
vt 0.636236 0.519725
vt 0.707222 0.519724
vt 0.787582 0.519724
vt 0.811066 0.519724
vt 0.463844 0.675767
vt 0.463845 0.535736
vt 0.476485 0.535736
vt 0.476484 0.675767
vt 0.461400 0.675774
vt 0.461401 0.535742
vt 0.625852 0.000001
vt 0.625852 0.002802
vt 0.625852 0.026287
vt 0.625852 0.106649
vt 0.622982 0.535723
vt 0.622982 0.675753
vt 0.610342 0.675753
vt 0.610342 0.535723
vt 0.625426 0.535716
vt 0.625426 0.675746
vt 0.625852 0.352468
vt 0.625852 0.355270
vt 0.625852 0.177636
vt 0.625852 0.328984
vt 0.625852 0.248622
vn 0.0000 -1.0000 0.0000
vn 0.0000 -0.9948 -0.1015
vn 0.2262 0.9741 0.0000
vn 0.0000 -0.1132 -0.9936
vn 0.0000 0.0915 -0.9958
vn 1.0000 0.0000 0.0000
vn 0.0000 -0.1132 0.9936
vn 0.0000 0.0916 0.9958
vn -1.0000 0.0000 0.0000
vn 0.0000 0.0915 0.9958
vn 0.0000 0.0916 -0.9958
vn 0.0000 1.0000 0.0000
vn 0.0000 -0.3133 -0.9497
vn 0.0000 -0.3133 0.9497
vn 0.0000 -0.9948 0.1015
vn -0.9927 0.0934 -0.0768
vn -0.9797 0.1579 0.1235
vn -0.9862 -0.0066 0.1657
vn -0.9999 0.0048 -0.0143
vn -1.0000 0.0001 0.0000
vn -0.9999 0.0048 0.0143
vn -0.9861 -0.0066 -0.1657
vn -0.9797 0.1579 -0.1235
vn -0.9927 0.0934 0.0768
vn 0.0000 -0.1587 0.9873
vn 0.0000 -0.2751 0.9614
vn 1.0000 -0.0001 0.0000
vn -0.9448 0.3275 0.0000
vn 0.0000 -0.1586 -0.9873
vn 1.0000 0.0001 0.0000
vn -0.8745 -0.4851 -0.0000
vn -0.8733 -0.4844 -0.0517
vn -1.0000 0.0002 0.0000
vn -0.8733 -0.4845 0.0517
vn -0.9934 0.0154 0.1139
vn -0.9761 0.0291 0.2151
vn -0.9761 0.0291 -0.2151
vn -0.9934 0.0154 -0.1139
vn 0.0000 0.0000 -1.0000
vn 0.0000 0.0000 1.0000
vn 0.1139 0.9935 0.0000
vn 0.0000 -0.2751 -0.9614
usemtl lampe
s 1
f 176/1/1 50/2/1 53/3/2 174/4/2
f 185/5/3 59/6/3 118/7/3 182/8/3
f 179/9/4 174/4/5 53/3/5 52/10/4
f 38/11/6 23/12/6 1/13/6 9/14/6
f 188/15/7 183/16/8 62/17/8 61/18/7
f 37/19/9 25/20/9 4/21/9 11/22/9
f 84/23/7 74/24/10 21/25/10 16/26/7
f 86/27/4 63/28/11 22/29/11 17/30/4
f 96/31/12 14/32/12 119/33/12 127/34/12
f 98/35/1 15/36/1 22/29/2 63/28/2
f 69/37/13 86/27/4 17/30/4 119/38/13
f 126/39/14 84/23/7 16/26/7 20/40/14
f 75/41/15 21/25/15 15/36/1 98/35/1
f 126/42/12 20/43/12 14/32/12 96/31/12
f 80/44/7 70/45/10 33/46/10 30/47/7
f 90/48/4 67/49/11 35/50/11 31/51/4
f 92/52/12 28/53/12 34/54/12 131/55/12
f 102/56/1 29/57/1 35/50/2 67/49/2
f 130/58/13 90/48/4 31/51/4 34/59/13
f 79/60/14 80/44/7 30/47/7 122/61/14
f 71/62/15 33/46/15 29/57/1 102/56/1
f 79/63/12 122/64/12 28/53/12 92/52/12
f 110/65/16 63/28/17 86/27/18 104/66/19
f 132/67/20 69/68/9 97/69/9 107/70/20
f 105/71/21 85/72/22 75/41/23 106/73/24
f 133/74/6 79/63/6 92/52/6 113/75/6
f 26/76/9 37/19/9 11/22/9 7/77/9
f 191/78/25 188/15/7 61/18/7 60/79/26
f 24/80/6 38/11/6 9/14/6 2/81/27
f 177/82/13 179/9/4 52/10/4 55/83/13
f 124/84/6 10/85/6 38/11/6 24/80/6
f 6/86/9 12/87/9 37/19/9 26/76/9
f 111/88/6 68/89/6 103/90/6 115/91/6
f 112/92/9 91/93/9 68/89/9 111/94/9
f 108/95/9 76/96/9 85/72/22 105/71/21
f 106/97/24 75/41/23 98/35/28 109/98/28
f 107/70/20 97/69/9 76/99/9 108/100/9
f 114/101/9 131/102/9 91/93/9 112/92/9
f 113/75/6 92/52/6 131/55/6 114/103/6
f 115/91/6 103/90/6 70/45/6 116/104/6
f 116/105/9 70/45/9 80/44/9 117/106/9
f 109/98/28 98/35/28 63/28/17 110/107/16
f 199/108/6 159/109/6 142/110/6 198/111/6
f 12/87/9 5/112/9 25/20/9 37/19/9
f 10/85/6 3/113/6 23/12/6 38/11/6
f 187/114/3 60/115/3 59/6/3 185/5/3
f 178/116/15 51/117/15 50/2/1 176/1/1
f 181/118/12 201/119/12 42/120/12 180/121/12
f 181/122/14 175/123/7 202/124/7 201/125/14
f 180/121/12 42/120/12 123/126/12 177/127/12
f 175/123/7 178/116/10 41/128/8 202/124/7
f 155/129/9 153/130/9 143/131/9 169/132/9
f 183/16/15 43/133/15 46/134/1 189/135/1
f 190/136/29 184/137/4 210/138/4 212/139/29
f 189/135/1 46/134/1 208/140/2 186/141/2
f 184/137/4 186/141/5 208/140/5 210/138/4
f 157/142/9 158/143/9 171/144/9 166/145/9
f 25/20/9 50/146/9 51/147/9 4/21/9
f 12/87/9 52/148/9 53/149/9 5/112/9
f 26/76/9 54/150/9 55/151/9 6/86/9
f 4/21/9 51/147/9 48/152/9 11/22/9
f 6/86/9 55/151/9 52/148/9 12/87/9
f 5/112/9 53/149/9 50/146/9 25/20/9
f 7/77/9 49/153/9 54/150/9 26/76/9
f 23/12/6 57/154/30 58/155/6 1/13/6
f 24/80/6 59/156/27 60/157/6 124/84/6
f 124/84/6 60/157/6 61/158/6 10/85/6
f 1/13/6 58/155/6 56/159/6 9/14/6
f 10/85/6 61/158/6 62/160/30 3/113/6
f 3/113/6 62/160/30 57/154/30 23/12/6
f 2/81/27 118/161/27 59/156/27 24/80/6
f 30/47/7 33/46/10 71/62/10 81/162/7
f 81/162/7 71/62/10 72/163/10 82/164/7
f 82/164/7 72/163/10 73/165/10 83/166/7
f 83/166/7 73/165/10 74/24/10 84/23/7
f 16/26/7 21/25/10 75/41/10 85/72/7
f 17/30/4 22/29/11 64/167/11 87/168/4
f 87/168/4 64/167/11 65/169/11 88/170/4
f 88/170/4 65/169/11 66/171/11 89/172/4
f 89/172/4 66/171/11 67/49/11 90/48/4
f 31/51/4 35/50/11 68/89/11 91/93/4
f 28/53/12 93/173/12 130/174/12 34/54/12
f 93/173/12 94/175/12 129/176/12 130/174/12
f 94/175/12 95/177/12 128/178/12 129/176/12
f 95/177/12 96/31/12 127/34/12 128/178/12
f 14/32/12 97/69/12 69/68/12 119/33/12
f 15/36/1 99/179/1 64/167/2 22/29/2
f 99/179/1 100/180/1 65/169/2 64/167/2
f 100/180/1 101/181/1 66/171/2 65/169/2
f 101/181/1 102/56/1 67/49/2 66/171/2
f 29/57/1 103/90/1 68/89/2 35/50/2
f 34/59/13 31/51/4 91/93/4 131/102/13
f 129/182/13 89/172/4 90/48/4 130/58/13
f 128/183/13 88/170/4 89/172/4 129/182/13
f 127/184/13 87/168/4 88/170/4 128/183/13
f 119/38/13 17/30/4 87/168/4 127/184/13
f 20/40/14 16/26/7 85/72/7 76/96/14
f 77/185/14 83/166/7 84/23/7 126/39/14
f 78/186/14 82/164/7 83/166/7 77/185/14
f 125/187/14 81/162/7 82/164/7 78/186/14
f 122/61/14 30/47/7 81/162/7 125/187/14
f 33/46/15 70/45/15 103/90/1 29/57/1
f 72/163/15 71/62/15 102/56/1 101/181/1
f 73/165/15 72/163/15 101/181/1 100/180/1
f 74/24/15 73/165/15 100/180/1 99/179/1
f 21/25/15 74/24/15 99/179/1 15/36/1
f 20/43/12 76/99/12 97/69/12 14/32/12
f 77/188/12 126/42/12 96/31/12 95/177/12
f 78/189/12 77/188/12 95/177/12 94/175/12
f 125/190/12 78/189/12 94/175/12 93/173/12
f 122/64/12 125/190/12 93/173/12 28/53/12
f 220/191/31 109/98/31 110/107/32 8/192/32
f 137/193/33 107/70/20 108/100/9 135/194/9
f 225/195/34 106/97/34 109/98/31 220/191/31
f 226/196/9 108/95/9 105/71/21 18/197/35
f 221/198/9 132/199/20 138/200/9
f 18/197/35 105/71/21 106/73/24 225/201/36
f 138/202/9 132/67/20 107/70/20 137/193/33
f 8/203/37 110/65/16 104/66/19 19/204/38
f 192/205/6 116/105/6 117/106/6 13/206/6
f 36/207/6 115/91/6 116/104/6 192/208/6
f 136/209/6 113/75/6 114/103/6 121/210/6
f 121/211/6 114/101/6 112/92/6 193/212/6
f 193/212/6 112/92/6 111/94/6 194/213/6
f 194/214/6 111/88/6 115/91/6 36/207/6
f 120/215/6 133/74/6 113/75/6 136/209/6
f 13/206/6 117/106/6 133/216/6 120/217/6
f 19/204/38 104/66/19 132/199/20 221/198/9
f 135/218/9 108/95/9 226/196/9
f 9/14/6 56/159/6 118/161/27 2/81/27
f 11/22/9 48/152/9 49/153/9 7/77/9
f 182/219/39 190/136/29 212/139/29 209/220/39
f 187/221/40 191/78/25 60/79/26
f 104/66/19 86/27/18 69/37/9 132/199/20
f 117/106/9 80/44/9 79/60/9 133/216/9
f 27/222/12 196/223/12 120/224/12 136/225/12
f 222/226/12 32/227/12 137/193/12 135/194/12
f 195/228/12 27/222/12 136/225/12 121/229/12
f 32/227/12 227/230/12 138/202/12 137/193/12
f 204/231/12 139/232/12 42/120/12 201/119/12
f 139/232/12 40/233/12 123/126/12 42/120/12
f 47/234/12 44/235/12 134/236/41 140/237/41
f 213/238/12 47/234/12 140/237/41 209/239/41
f 153/130/9 224/240/9 167/241/9 143/131/9
f 217/242/6 154/243/6 144/244/6 214/245/6
f 158/143/9 160/246/9 170/247/9 171/144/9
f 159/109/6 161/248/6 197/249/6 142/110/6
f 154/243/6 156/250/6 172/251/6 144/244/6
f 47/252/6 213/253/6 216/254/6 152/255/6
f 44/256/6 47/252/6 152/255/6 215/257/6
f 32/258/9 222/259/9 223/260/9 150/261/9
f 227/262/9 32/258/9 150/261/9 151/263/9
f 152/255/6 216/254/6 156/250/6 154/243/6
f 215/257/6 152/255/6 154/243/6 217/242/6
f 150/261/9 223/260/9 224/240/9 153/130/9
f 151/263/9 150/261/9 153/130/9 155/129/9
f 165/264/6 200/265/6 161/248/6 159/109/6
f 164/266/9 163/267/9 160/246/9 158/143/9
f 207/268/9 164/266/9 158/143/9 157/142/9
f 162/269/6 165/264/6 159/109/6 199/108/6
f 196/270/6 27/271/6 165/264/6 162/269/6
f 40/272/9 139/273/9 164/266/9 207/268/9
f 139/273/9 204/274/9 163/267/9 164/266/9
f 27/271/6 195/275/6 200/265/6 165/264/6
f 168/276/12 148/277/12 198/111/12 142/110/12
f 147/278/12 228/279/12 143/131/12 167/241/12
f 146/280/12 168/276/12 142/110/12 197/249/12
f 228/279/12 149/281/12 169/132/12 143/131/12
f 205/282/12 141/283/12 171/144/12 170/247/12
f 141/283/12 145/284/12 166/145/12 171/144/12
f 173/285/12 218/286/12 214/245/12 144/244/12
f 219/287/12 173/285/12 144/244/12 172/251/12
f 48/288/7 51/117/10 178/116/10 175/123/7
f 54/289/12 180/121/12 177/127/12 55/290/12
f 49/291/14 48/288/7 175/123/7 181/122/14
f 49/292/12 181/118/12 180/121/12 54/289/12
f 41/128/15 178/116/15 176/1/1 203/293/1
f 123/294/13 206/295/4 179/9/4 177/82/13
f 206/295/4 39/296/5 174/4/5 179/9/4
f 203/293/1 176/1/1 174/4/2 39/296/2
f 134/297/40 211/298/25 191/78/25 187/221/40
f 118/299/42 190/136/29 182/219/39
f 56/300/4 58/301/5 186/141/5 184/137/4
f 57/302/1 189/135/1 186/141/2 58/301/2
f 118/299/42 56/300/4 184/137/4 190/136/29
f 62/17/15 183/16/15 189/135/1 57/302/1
f 134/236/41 187/114/3 185/5/3 140/237/41
f 211/298/25 45/303/7 188/15/7 191/78/25
f 45/303/7 43/133/8 183/16/8 188/15/7
f 140/237/41 185/5/3 182/8/3 209/239/41
f 145/284/12 146/280/12 197/249/12 166/145/12
f 204/304/40 196/305/40 162/306/40 163/307/40
f 163/307/40 162/306/40 199/308/40 160/309/40
f 160/309/40 199/308/40 198/111/40 170/247/40
f 205/282/12 148/277/12 168/276/12 141/283/12
f 141/283/12 168/276/12 146/280/12 145/284/12
f 40/233/12 195/228/12 121/229/12 123/126/12
f 201/125/14 202/124/7 13/310/7 120/311/14
f 202/124/7 41/128/8 192/312/8 13/310/7
f 148/277/12 205/282/12 170/247/12 198/111/12
f 195/313/39 40/314/39 207/315/39 200/316/39
f 200/316/39 207/315/39 157/317/39 161/318/39
f 161/318/39 157/317/39 166/145/39 197/249/39
f 196/223/12 204/231/12 201/119/12 120/224/12
f 36/319/1 203/293/1 39/296/2 194/320/2
f 193/321/4 194/320/5 39/296/5 206/295/4
f 121/322/13 193/321/4 206/295/4 123/294/13
f 192/312/15 41/128/15 203/293/1 36/319/1
f 149/281/12 219/287/12 172/251/12 169/132/12
f 223/323/40 215/324/40 217/325/40 224/326/40
f 222/327/40 44/328/40 215/324/40 223/323/40
f 224/326/40 217/325/40 214/245/40 167/241/40
f 228/279/12 173/285/12 219/287/12 149/281/12
f 147/278/12 218/286/12 173/285/12 228/279/12
f 227/230/12 213/238/12 209/239/41 138/202/12
f 135/329/40 226/330/25 211/298/25 134/297/40
f 18/331/7 225/332/8 43/133/8 45/303/7
f 226/330/25 18/331/7 45/303/7 211/298/25
f 218/286/12 147/278/12 167/241/12 214/245/12
f 216/333/39 151/334/39 155/335/39 156/336/39
f 213/337/39 227/338/39 151/334/39 216/333/39
f 44/235/12 222/226/12 135/194/12 134/236/41
f 209/220/39 212/139/29 221/339/29 138/340/39
f 43/133/15 225/332/15 220/341/1 46/134/1
f 212/139/29 210/138/4 19/342/4 221/339/29
f 46/134/1 220/341/1 8/343/2 208/140/2
f 156/336/39 155/335/39 169/132/39 172/251/39
f 210/138/4 208/140/5 8/343/5 19/342/4
