# Blender v3.5.1 OBJ File: 'zentrifuge.blend'
# www.blender.org
mtllib luftschacht.mtl
o Cube.002_Cube.035
v -58.637543 31.795437 55.521469
v -58.637543 40.134838 55.521469
v -58.637543 31.795437 47.182068
v -58.637543 40.134838 47.182068
v -58.560741 32.355125 54.961781
v -58.560741 39.575150 54.961781
v -58.560741 32.355125 47.741756
v -58.560741 39.575150 47.741756
v -58.065235 31.855627 55.461281
v -58.069363 31.795437 55.521469
v -58.069363 40.134838 55.521469
v -58.065235 40.074646 55.461281
v -58.065235 31.855627 47.242256
v -58.069363 31.795437 47.182068
v -58.069363 40.134838 47.182068
v -58.065235 40.074646 47.242256
v -58.069134 32.355125 54.961781
v -58.065235 32.298306 55.018600
v -58.065235 39.631969 55.018600
v -58.069134 39.575150 54.961781
v -58.069134 32.355125 47.741756
v -58.065235 32.298306 47.684937
v -58.065235 39.631969 47.684937
v -58.069134 39.575150 47.741756
v -58.490486 39.581680 54.926048
v -58.250965 38.553844 54.926048
v -58.490486 39.581680 47.777496
v -58.250965 38.553844 47.777496
v -58.423927 38.655445 54.926048
v -58.423927 38.655445 47.777496
v -58.316086 38.833294 47.777496
v -58.316086 38.833294 54.926048
v -58.490486 39.581680 50.160347
v -58.490486 39.581680 52.543198
v -58.250965 38.553844 52.543198
v -58.250965 38.553844 50.160347
v -58.423927 38.655445 52.543198
v -58.423927 38.655445 50.160347
v -58.316086 38.833294 52.543198
v -58.316086 38.833294 50.160347
v -58.490486 38.411175 54.926048
v -58.250965 37.383339 54.926048
v -58.490486 38.411175 47.777496
v -58.250965 37.383339 47.777496
v -58.423927 37.484940 54.926048
v -58.423927 37.484940 47.777496
v -58.316086 37.662788 47.777496
v -58.316086 37.662788 54.926048
v -58.490486 38.411175 50.160347
v -58.490486 38.411175 52.543198
v -58.250965 37.383339 52.543198
v -58.250965 37.383339 50.160347
v -58.423927 37.484940 52.543198
v -58.423927 37.484940 50.160347
v -58.316086 37.662788 52.543198
v -58.316086 37.662788 50.160347
v -58.490486 37.189621 54.926048
v -58.250965 36.161789 54.926048
v -58.490486 37.189621 47.777496
v -58.250965 36.161789 47.777496
v -58.423927 36.263390 54.926048
v -58.423927 36.263390 47.777496
v -58.316086 36.441235 47.777496
v -58.316086 36.441235 54.926048
v -58.490486 37.189621 50.160347
v -58.490486 37.189621 52.543198
v -58.250965 36.161789 52.543198
v -58.250965 36.161789 50.160347
v -58.423927 36.263390 52.543198
v -58.423927 36.263390 50.160347
v -58.316086 36.441235 52.543198
v -58.316086 36.441235 50.160347
v -58.490486 36.019119 54.926048
v -58.250965 34.991283 54.926048
v -58.490486 36.019119 47.777496
v -58.250965 34.991283 47.777496
v -58.423927 35.092884 54.926048
v -58.423927 35.092884 47.777496
v -58.316086 35.270729 47.777496
v -58.316086 35.270729 54.926048
v -58.490486 36.019119 50.160347
v -58.490486 36.019119 52.543198
v -58.250965 34.991283 52.543198
v -58.250965 34.991283 50.160347
v -58.423927 35.092884 52.543198
v -58.423927 35.092884 50.160347
v -58.316086 35.270729 52.543198
v -58.316086 35.270729 50.160347
v -58.490486 34.756828 54.926048
v -58.250965 33.728996 54.926048
v -58.490486 34.756828 47.777496
v -58.250965 33.728996 47.777496
v -58.423927 33.830597 54.926048
v -58.423927 33.830597 47.777496
v -58.316086 34.008442 47.777496
v -58.316086 34.008442 54.926048
v -58.490486 34.756828 50.160347
v -58.490486 34.756828 52.543198
v -58.250965 33.728996 52.543198
v -58.250965 33.728996 50.160347
v -58.423927 33.830597 52.543198
v -58.423927 33.830597 50.160347
v -58.316086 34.008442 52.543198
v -58.316086 34.008442 50.160347
v -58.490486 33.586327 54.926048
v -58.250965 32.558491 54.926048
v -58.490486 33.586327 47.777496
v -58.250965 32.558491 47.777496
v -58.423927 32.660091 54.926048
v -58.423927 32.660091 47.777496
v -58.316086 32.837936 47.777496
v -58.316086 32.837936 54.926048
v -58.490486 33.586327 50.160347
v -58.490486 33.586327 52.543198
v -58.250965 32.558491 52.543198
v -58.250965 32.558491 50.160347
v -58.423927 32.660091 52.543198
v -58.423927 32.660091 50.160347
v -58.316086 32.837936 52.543198
v -58.316086 32.837936 50.160347
vt 0.809234 0.202061
vt 0.608632 0.406229
vt 0.402979 0.204169
vt 0.603581 0.000000
vt 0.238378 0.402027
vt 0.402554 0.237351
vt 0.406325 0.379714
vt 0.377016 0.399527
vt 0.809234 0.598443
vt 0.615623 0.800504
vt 0.415020 0.608290
vt 0.210429 0.817201
vt 0.000000 0.611122
vt 0.204591 0.402212
vt 0.575534 0.406598
vt 0.415203 0.574494
vt 0.401649 0.436098
vt 0.433384 0.411258
vt 0.007977 0.205256
vt 0.206365 0.007213
vt 0.376639 0.400505
vt 0.400558 0.436434
vt 0.211780 0.401983
vt 0.403070 0.211207
vt 0.402674 0.232068
vt 0.232999 0.402012
vt 0.414878 0.601113
vt 0.415117 0.579876
vt 0.601608 0.406493
vt 0.580802 0.406581
vt 0.433715 0.410264
vt 0.407449 0.379735
vt 0.877513 0.064502
vt 0.809234 0.064502
vt 0.809234 0.000000
vt 0.877513 0.000000
vt 0.920322 0.064502
vt 0.920322 0.000000
vt 0.992033 0.064502
vt 0.992033 0.000000
vt 0.992033 0.193506
vt 0.920322 0.193506
vt 0.920322 0.129004
vt 0.992033 0.129004
vt 0.877513 0.193506
vt 0.877513 0.129004
vt 0.809234 0.193506
vt 0.809234 0.129004
vt 0.322509 0.885480
vt 0.322509 0.817201
vt 0.387011 0.817201
vt 0.387011 0.885480
vt 0.322509 0.928289
vt 0.387011 0.928289
vt 0.322509 1.000000
vt 0.387011 1.000000
vt 0.193506 1.000000
vt 0.193506 0.928289
vt 0.258007 0.928289
vt 0.258007 1.000000
vt 0.193506 0.885480
vt 0.258007 0.885480
vt 0.193506 0.817201
vt 0.258007 0.817201
vt 0.129004 0.885480
vt 0.129004 0.817201
vt 0.193506 0.817201
vt 0.193506 0.885480
vt 0.129004 0.928289
vt 0.193506 0.928289
vt 0.129004 1.000000
vt 0.193506 1.000000
vt 0.000000 1.000000
vt 0.000000 0.928289
vt 0.064502 0.928289
vt 0.064502 1.000000
vt 0.000000 0.885480
vt 0.064502 0.885480
vt 0.000000 0.817201
vt 0.064502 0.817201
vt 0.451513 0.931721
vt 0.451513 1.000000
vt 0.387011 1.000000
vt 0.387011 0.931721
vt 0.451513 0.888912
vt 0.387011 0.888912
vt 0.451513 0.817201
vt 0.387011 0.817201
vt 0.580517 0.817201
vt 0.580517 0.888912
vt 0.516015 0.888912
vt 0.516015 0.817201
vt 0.580517 0.931721
vt 0.516015 0.931721
vt 0.580517 1.000000
vt 0.516015 1.000000
vt 0.877513 0.258007
vt 0.809234 0.258007
vt 0.809234 0.193506
vt 0.877513 0.193506
vt 0.920322 0.258007
vt 0.920322 0.193506
vt 0.992033 0.258007
vt 0.992033 0.193506
vt 0.992033 0.387011
vt 0.920322 0.387011
vt 0.920322 0.322509
vt 0.992033 0.322509
vt 0.877513 0.387011
vt 0.877513 0.322509
vt 0.809234 0.387011
vt 0.809234 0.322509
vt 0.923754 0.516015
vt 0.992033 0.516015
vt 0.992033 0.580517
vt 0.923754 0.580517
vt 0.880945 0.516015
vt 0.880945 0.580517
vt 0.809234 0.516015
vt 0.809234 0.580517
vt 0.809234 0.387011
vt 0.880945 0.387011
vt 0.880945 0.451513
vt 0.809234 0.451513
vt 0.923754 0.387011
vt 0.923754 0.451513
vt 0.992033 0.387011
vt 0.992033 0.451513
vn 0.0000 -1.0000 0.0000
vn 0.0000 0.0000 -1.0000
vn 0.0000 1.0000 0.0000
vn 0.0000 0.0000 1.0000
vn 1.0000 0.0000 0.0000
vn 0.9977 0.0000 -0.0684
vn 0.9977 -0.0684 0.0000
vn 0.9977 0.0684 0.0000
vn 0.9977 0.0000 0.0684
vn 0.9977 0.0000 0.0685
vn 0.9977 0.0685 0.0000
vn 0.9977 -0.0685 0.0000
vn 0.9977 0.0000 -0.0685
vn 0.5065 0.8622 0.0000
vn 0.8551 -0.5185 0.0000
vn 0.9739 0.2270 0.0000
usemtl lüftung
s off
f 3/1/1 14/2/1 10/3/1 1/4/1
f 20/5/2 17/6/2 5/7/2 6/8/2
f 3/9/2 4/10/2 15/11/2 14/2/2
f 15/11/3 4/12/3 2/13/3 11/14/3
f 21/15/4 24/16/4 8/17/4 7/18/4
f 10/3/4 11/14/4 2/19/4 1/20/4
f 24/16/1 20/5/1 6/21/1 8/22/1
f 12/23/5 9/24/5 18/25/5 19/26/5
f 16/27/5 12/23/5 19/26/5 23/28/5
f 13/29/5 16/27/5 23/28/5 22/30/5
f 16/27/6 13/29/6 14/2/6 15/11/6
f 10/3/7 14/2/7 13/29/7 9/24/7
f 15/11/8 11/14/8 12/23/8 16/27/8
f 11/14/9 10/3/9 9/24/9 12/23/9
f 17/6/3 21/15/3 7/31/3 5/32/3
f 24/16/10 21/15/10 22/30/10 23/28/10
f 18/25/11 22/30/11 21/15/11 17/6/11
f 23/28/12 19/26/12 20/5/12 24/16/12
f 19/26/13 18/25/13 17/6/13 20/5/13
f 9/24/5 13/29/5 22/30/5 18/25/5
f 38/33/14 36/34/14 28/35/14 30/36/14
f 40/37/15 38/33/15 30/36/15 31/38/15
f 33/39/16 40/37/16 31/38/16 27/40/16
f 25/41/16 32/42/16 39/43/16 34/44/16
f 34/44/16 39/43/16 40/37/16 33/39/16
f 32/42/15 29/45/15 37/46/15 39/43/15
f 39/43/15 37/46/15 38/33/15 40/37/15
f 29/45/14 26/47/14 35/48/14 37/46/14
f 37/46/14 35/48/14 36/34/14 38/33/14
f 54/49/14 52/50/14 44/51/14 46/52/14
f 56/53/15 54/49/15 46/52/15 47/54/15
f 49/55/16 56/53/16 47/54/16 43/56/16
f 41/57/16 48/58/16 55/59/16 50/60/16
f 50/60/16 55/59/16 56/53/16 49/55/16
f 48/58/15 45/61/15 53/62/15 55/59/15
f 55/59/15 53/62/15 54/49/15 56/53/15
f 45/61/14 42/63/14 51/64/14 53/62/14
f 53/62/14 51/64/14 52/50/14 54/49/14
f 70/65/14 68/66/14 60/67/14 62/68/14
f 72/69/15 70/65/15 62/68/15 63/70/15
f 65/71/16 72/69/16 63/70/16 59/72/16
f 57/73/16 64/74/16 71/75/16 66/76/16
f 66/76/16 71/75/16 72/69/16 65/71/16
f 64/74/15 61/77/15 69/78/15 71/75/15
f 71/75/15 69/78/15 70/65/15 72/69/15
f 61/77/14 58/79/14 67/80/14 69/78/14
f 69/78/14 67/80/14 68/66/14 70/65/14
f 86/81/14 84/82/14 76/83/14 78/84/14
f 88/85/15 86/81/15 78/84/15 79/86/15
f 81/87/16 88/85/16 79/86/16 75/88/16
f 73/89/16 80/90/16 87/91/16 82/92/16
f 82/92/16 87/91/16 88/85/16 81/87/16
f 80/90/15 77/93/15 85/94/15 87/91/15
f 87/91/15 85/94/15 86/81/15 88/85/15
f 77/93/14 74/95/14 83/96/14 85/94/14
f 85/94/14 83/96/14 84/82/14 86/81/14
f 102/97/14 100/98/14 92/99/14 94/100/14
f 104/101/15 102/97/15 94/100/15 95/102/15
f 97/103/16 104/101/16 95/102/16 91/104/16
f 89/105/16 96/106/16 103/107/16 98/108/16
f 98/108/16 103/107/16 104/101/16 97/103/16
f 96/106/15 93/109/15 101/110/15 103/107/15
f 103/107/15 101/110/15 102/97/15 104/101/15
f 93/109/14 90/111/14 99/112/14 101/110/14
f 101/110/14 99/112/14 100/98/14 102/97/14
f 118/113/14 116/114/14 108/115/14 110/116/14
f 120/117/15 118/113/15 110/116/15 111/118/15
f 113/119/16 120/117/16 111/118/16 107/120/16
f 105/121/16 112/122/16 119/123/16 114/124/16
f 114/124/16 119/123/16 120/117/16 113/119/16
f 112/122/15 109/125/15 117/126/15 119/123/15
f 119/123/15 117/126/15 118/113/15 120/117/15
f 109/125/14 106/127/14 115/128/14 117/126/14
f 117/126/14 115/128/14 116/114/14 118/113/14
